<svg width="670" height="550" viewBox="0 0 670 550" xmlns="http://www.w3.org/2000/svg" xmlns:xlink="http://www.w3.org/1999/xlink"><title>papercraft2</title><defs><filter x="-50%" y="-50%" width="200%" height="200%" filterUnits="objectBoundingBox" id="a"><feGaussianBlur stdDeviation="5" in="SourceGraphic" result="blur"/></filter><linearGradient x1="0%" y1="50%" y2="100%" id="c"><stop stop-color="#FFF" stop-opacity=".501" offset="0%"/><stop stop-color="#7F7F7F" stop-opacity=".499" offset="100%"/></linearGradient><linearGradient x1="50%" y1="0%" x2="50%" y2="20.333%" id="d"><stop stop-color="#FFF" stop-opacity=".253" offset="0%"/><stop stop-color="#FFF" stop-opacity="0" offset="100%"/></linearGradient><path id="b" d="M310 250h300l10 250-310-10V250z"/><linearGradient x1="0%" y1="100%" y2="50%" id="f"><stop stop-color="#FFF" stop-opacity=".5" offset="0%"/><stop stop-color="#7F7F7F" stop-opacity=".499" offset="100%"/></linearGradient><linearGradient x1="50%" y1="0%" x2="50%" y2="15.813%" id="g"><stop stop-color="#FFF" stop-opacity=".25" offset="0%"/><stop stop-color="#FFF" stop-opacity="0" offset="100%"/></linearGradient><path id="e" d="M10 250h300v240L0 500l10-250z"/><linearGradient x1="0%" y1="100%" y2="50%" id="i"><stop stop-color="#FFF" stop-opacity=".5" offset="0%"/><stop stop-color="gray" stop-opacity=".5" offset="100%"/></linearGradient><linearGradient x1="50%" y1="83.572%" x2="50%" y2="100%" id="j"><stop stop-color="#FFF" stop-opacity="0" offset="0%"/><stop stop-opacity=".1" offset="100%"/></linearGradient><path id="h" d="M310 10L620 0l-10 250H310V10z"/><linearGradient x1="0%" y1="0%" x2="50%" y2="100%" id="l"><stop stop-color="#FFF" stop-opacity=".503" offset="0%"/><stop stop-color="#7F7F7F" stop-opacity=".5" offset="100%"/></linearGradient><linearGradient x1="50%" y1="84.178%" x2="50%" y2="100%" id="m"><stop stop-color="#FFF" stop-opacity="0" offset="0%"/><stop stop-opacity=".1" offset="100%"/></linearGradient><path id="k" d="M0 0l310 10v240H10L0 0z"/></defs><g fill="none" fill-rule="evenodd"><path d="M35 275L15 15l260 20 380-20-20 260 20 260-380-20-260 20 20-260z" fill-opacity=".2" fill="#333" filter="url(#a)"/><g transform="translate(15 15)"><use fill="#A36580" xlink:href="#b"/><use fill="url(#c)" xlink:href="#b"/><use fill="url(#d)" xlink:href="#b"/></g><g transform="translate(15 15)"><use fill="#A36580" xlink:href="#e"/><use fill="url(#f)" xlink:href="#e"/><use fill="url(#g)" xlink:href="#e"/></g><g transform="translate(15 15)"><use fill="#A36580" xlink:href="#h"/><use fill="url(#i)" xlink:href="#h"/><use fill="url(#j)" xlink:href="#h"/></g><g transform="translate(15 15)"><use fill="#A36580" xlink:href="#k"/><use fill="url(#l)" xlink:href="#k"/><use fill="url(#m)" xlink:href="#k"/></g></g></svg>