<svg width="550" height="550" viewBox="0 0 550 550" xmlns="http://www.w3.org/2000/svg" xmlns:xlink="http://www.w3.org/1999/xlink"><title>logo</title><defs><filter x="-50%" y="-50%" width="200%" height="200%" filterUnits="objectBoundingBox" id="a"><feGaussianBlur stdDeviation="5" in="SourceGraphic" result="blur"/></filter><linearGradient x1="0%" y1="50%" y2="100%" id="c"><stop stop-color="#FFF" stop-opacity=".501" offset="0%"/><stop stop-color="#7F7F7F" stop-opacity=".499" offset="100%"/></linearGradient><linearGradient x1="50%" y1="0%" x2="50%" y2="20.333%" id="d"><stop stop-color="#FFF" stop-opacity=".253" offset="0%"/><stop stop-color="#FFF" stop-opacity="0" offset="100%"/></linearGradient><path id="b" d="M250 250h240l10 250-250-10V250z"/><linearGradient x1="0%" y1="100%" y2="50%" id="f"><stop stop-color="#FFF" stop-opacity=".5" offset="0%"/><stop stop-color="#7F7F7F" stop-opacity=".499" offset="100%"/></linearGradient><linearGradient x1="50%" y1="0%" x2="50%" y2="15.813%" id="g"><stop stop-color="#FFF" stop-opacity=".25" offset="0%"/><stop stop-color="#FFF" stop-opacity="0" offset="100%"/></linearGradient><path id="e" d="M10 250h240v240L0 500l10-250z"/><linearGradient x1="0%" y1="100%" y2="50%" id="i"><stop stop-color="#FFF" stop-opacity=".5" offset="0%"/><stop stop-color="gray" stop-opacity=".5" offset="100%"/></linearGradient><linearGradient x1="50%" y1="83.572%" x2="50%" y2="100%" id="j"><stop stop-color="#FFF" stop-opacity="0" offset="0%"/><stop stop-opacity=".1" offset="100%"/></linearGradient><path id="h" d="M250 10L500 0l-10 250H250V10z"/><linearGradient x1="0%" y1="0%" x2="50%" y2="100%" id="l"><stop stop-color="#FFF" stop-opacity=".5" offset="0%"/><stop stop-color="gray" stop-opacity=".5" offset="100%"/></linearGradient><linearGradient x1="50%" y1="84.178%" x2="50%" y2="100%" id="m"><stop stop-color="#FFF" stop-opacity="0" offset="0%"/><stop stop-opacity=".1" offset="100%"/></linearGradient><path id="k" d="M0 0l250 10v240H10L0 0z"/></defs><g fill="none" fill-rule="evenodd"><path d="M35 275L15 15l260 20 260-20-20 260 20 260-260-20-260 20 20-260z" fill-opacity=".2" fill="#333" filter="url(#a)"/><g transform="translate(15 15)"><use fill="#618F70" xlink:href="#b"/><use fill="url(#c)" xlink:href="#b"/><use fill="url(#d)" xlink:href="#b"/></g><g transform="translate(15 15)"><use fill="#618F70" xlink:href="#e"/><use fill="url(#f)" xlink:href="#e"/><use fill="url(#g)" xlink:href="#e"/></g><g transform="translate(15 15)"><use fill="#618F70" xlink:href="#h"/><use fill="url(#i)" xlink:href="#h"/><use fill="url(#j)" xlink:href="#h"/></g><g transform="translate(15 15)"><use fill="#618F70" xlink:href="#k"/><use fill="url(#l)" xlink:href="#k"/><use fill="url(#m)" xlink:href="#k"/></g><g fill-opacity=".749" fill="#000"><path d="M292.06 97.783c1.926 24.384 53.088 13.102 56.213-6.15 2.494-15.38-8.29-21.435-26.35-18.453-12.972 2.144-31.15 8.306-29.863 24.603M324.56 60h8.782c18.707 3.557 30.766 13.79 27.226 34.27-5.233 30.285-70.536 42.396-79.048 10.544C273.625 75.26 303.142 64.17 324.56 60M192.438 99.788c-.478-1.37-2.38-2.687-2.635-4.395-1.172-7.88 37.143-27.34 45.67-31.63 3.496-1.757 7.772 4.342 7.907 5.272 1.18 8.132-17.866 14.09-23.714 17.573-9.865 5.878-14.94 12.258-27.228 13.18M203.597 122.406c-.578-1.18-1.88-1.637-3.515-1.758-4.353-10.104 9.266-14.698 20.202-21.09 10.71-6.254 16.642-10.33 22.837-13.18 4.23-1.942 9.54 1.83 9.66 5.274.226 6.366-17.737 14.523-22.834 17.573-10.072 6.027-16.635 9.47-26.35 13.18M169.763 87.76c6.482 16.514 9.454 37.138 10.54 57.112-11.34 1.714-20.575-5.223-28.984-9.667-8.674-4.58-16.58-10.043-25.472-14.056-1.61 15.96.872 36.018-4.39 48.325h-6.15c-5.122-9.193-2.378-25.852-1.756-39.54.448-9.882-1.77-21.436 5.27-25.482 17.538 6.766 31.838 16.77 48.308 24.603-2.818-13.796-5.58-24.052-6.15-38.66 1.88-1.93 4.264-3.35 8.783-2.637M408.82 94.567c5.664 16.596 10.193 34.322 14.932 51.84 4.536-3.27 8.43-9.854 14.053-16.693 5.374-6.538 11.928-19.107 21.08-14.06 1.718 12.086-10.175 20.412-16.688 28.116-6.476 7.663-11.663 20.894-23.714 21.967-8.222-16.082-11.127-37.49-17.566-55.354-6.177 3.534-13.603 9.673-22.836 16.694-7.866 5.98-21.468 21.52-28.105 10.543 3.488-11.28 15.505-15.534 23.715-21.966 8.653-6.78 16.79-13.94 25.47-20.21.218-.952 1.747-.594 1.757-1.757 3.2-.27 5.715.14 7.904.88M213.142 145.75c-1.645-2.217-3.9-2.587-3.512-7.03.48-5.505 36.393-24.193 43.916-28.996 4.06-2.594 8.656 3.882 8.782 4.393 1.997 8.055-16.69 15.29-21.957 18.453-10.118 6.072-15.888 10.955-27.228 13.18"/><path d="M340.357 135.172c1.01 2.463 1.01 4.568 0 7.03-19.113 3.61-40.622-1.925-59.723-5.27-1.91-1.7-2.563-11.272 4.39-10.547 12.314 1.29 46.65 4.087 55.333 8.787M346.448 287.794c-.888-6.71-5.43-17.54-10.54-21.09-22.816-15.84-39.592 33.378-2.635 23.725 10.372 15.787-2.448 35.89-9.662 47.45 12.187-10.13 25.782-27.836 22.838-50.086m-152.826-31.632c-13.842-10.422-31.624 5.22-22.834 22.846 7.31.094 8.11-5.612 15.808-3.518 19.628 5.345-4.407 47.734-10.54 52.718 25.13-2.084 36.62-57.695 17.566-72.046m144.043-25.48c-5.34 4.762-13.492 10.047-23.716 9.662-15.148-.56-22.295-14.03-32.498-20.208-45.308-27.428-116.235-18.92-152.823 13.18-14.15 12.416-27.023 30.083-22.838 57.113 1.776-51.833 71.304-76.777 104.52-44.81 14 13.47 19.527 36.253 36.888 43.05 29.13 11.416 37.282-21.11 53.574-30.754 11.38-6.727 33.293-9.378 45.674-2.634 4.574 2.497 7.332 9.25 14.05 12.305 8.84 4.01 18.547 1.86 28.108-.884-8.662-11.948-29.497-19.143-29.862-37.78-.11-5.68 2.718-8.19 2.635-14.94-14.267-6.135-16.306 10.09-23.715 16.698m28.98-10.544c-3.947 22.018 18.834 42.285 39.526 39.54 13.35-1.77 19.263-13.55 27.23-22.843-7.853 4.008-14.948 11.627-25.47 13.18-17.074 2.514-34.205-8.074-33.377-25.484.433-9.122 7.947-16.163 13.175-20.21 3.76-2.908 10.215-4.73 8.782-7.026-13.326 4.303-27.487 9.61-29.864 22.842m106.272 36.91c1.874 9.51.933 15.44-1.56 24.858-2.522 9.507-5.958 18.856-11.61 26.977-67.19 96.556-319.812 98.292-388.21 0-13.793-19.825-17.59-45.3-8.867-67.67 3.852-9.876 9.706-18.86 16.713-26.78 14.384-16.252 33.264-28.163 52.758-37.348 70.315-33.13 171.298-36.942 248.562-7.907 5.143 0 13.237 5.273 17.914 7.408 5.96 2.722 11.815 5.678 17.498 8.943 10.84 6.225 21.108 13.582 29.947 22.46 8.628 8.666 15.782 18.757 20.726 29.96 2.59 5.872 4.667 12.06 5.977 18.348.055.25.106.503.155.75M390.98 396.29c-3.298-7.556 9.64-15.88 19.322-23.722 10.688-8.667 14.186-13.678 22.834-17.574 3.907-1.76 7.77 4.385 7.907 5.27 1.024 6.71-19.053 19.713-22.837 22.844-9.118 7.548-17.14 17.784-27.225 13.18M160.975 391.466c-9.745 1.896-17.29-5.37-25.47-7.908-8.795 13.21-19.168 27.815-28.984 42.18-2.825 4.135-5.045 12.39-13.174 7.902-.12-1.63-.576-2.935-1.756-3.51 8.248-19.28 21.53-33.524 31.62-50.965-6.375-4.127-27.153-7.717-15.81-18.452 8.314-.12 16.24 5.19 28.985 10.545 11.2 4.706 31.56 6.985 24.59 20.208M449.977 380.653c6.826 8.966-13.53 20.37-21.082 26.36-9.573 7.606-18.767 19.173-28.104 12.304 1.27-11.6 14.197-16.815 21.96-22.846 7.785-6.05 15.722-17.246 27.227-15.817"/><path d="M209.312 408.54c.072-6.457-11.25-9.087-20.2-9.662-2.893 6.183-5.4 12.76-7.905 19.328 11.26-.797 28.013-1.223 28.105-9.666m2.636 62.386h-3.513c-12.31-12.584-19.605-30.178-31.62-43.053-4.535 5.723-7.38 33.85-17.566 32.512-9.067-1.198-2.822-12.722-.878-17.573 7.874-19.664 15.472-43.995 24.59-57.114 20.145.686 40.648 7.47 38.648 25.476-1.44 12.983-15.418 14.918-27.228 19.333 3.323 9.773 30.152 31.255 17.566 40.42M330.402 401.654c3.404 17.685 6.443 35.73 9.663 53.596 9.62-2.943 27.353-3.806 26.35-14.935-.953-10.558-20.547-7.006-24.594-13.18-5.442-8.306 5.637-9.275 8.785-11.425 4.623-3.148 8.815-8.28 5.27-14.934-7.37-3.54-17.917-.605-25.473.878m32.498 19.334c10.208 5.217 19.416 14.192 14.933 27.234-5.204 15.132-31.27 19.235-46.55 19.333-6.24-20.14-10.47-49.06-13.175-72.052 8.27-7.814 30.05-11.464 41.28-7.027 11.005 4.346 13.723 25.964 3.512 32.512M295.58 400.992c-2.326 5.915-13.474 5.006-17.568 4.393-5.84 15.83-9.066 34.275-14.052 50.964 6.013 2.445 19.08 1.63 14.052 12.295-11.578 4.06-27.25-1.665-39.522-2.634-1.205-3.684-2.295-6.392 0-9.66 3.62-2.73 6.784-.562 12.295-.885 5.886-14.612 8.98-32.02 13.175-48.326-3.99-2.45-13.81.935-16.687-2.635.14-1.02-.195-1.56-.88-1.76-1.6-12.463 17.275-8.786 31.62-8.786 9.806 0 18.796-.233 17.566 7.032M456.81 402.93c22.032 3.245-7.147 22.465-13.173 27.244-3.642 2.884-28.37 26.566-30.74 12.297-1.048-6.297 15.33-16.353 20.2-20.206 9.48-7.496 16.355-13.536 23.714-19.333"/></g></g></svg>