<svg width="960" height="215" viewBox="0 0 960 215" xmlns="http://www.w3.org/2000/svg" xmlns:xlink="http://www.w3.org/1999/xlink"><title>postit</title><defs><filter x="-50%" y="-50%" width="200%" height="200%" filterUnits="objectBoundingBox" id="a"><feGaussianBlur stdDeviation="5" in="SourceGraphic" result="blur"/></filter><linearGradient x1="196.522%" y1="100%" x2="-43.463%" y2="50%" id="c"><stop stop-color="#FFF" stop-opacity=".5" offset="0%"/><stop stop-color="gray" stop-opacity=".5" offset="100%"/></linearGradient><linearGradient x1="100%" y1="44.597%" x2="89.149%" y2="44.597%" id="d"><stop stop-opacity=".1" offset="0%"/><stop stop-color="#FFF" stop-opacity="0" offset="100%"/></linearGradient><path id="b" d="M9.56 25h332.075v190H9.56z"/><linearGradient x1="204.798%" y1="100%" x2="-37.967%" y2="50%" id="f"><stop stop-color="#FFF" stop-opacity=".5" offset="0%"/><stop stop-color="#7F7F7F" stop-opacity=".5" offset="100%"/></linearGradient><path id="e" d="M341.635 25l276.73-10v200h-276.73V25z"/><linearGradient x1="100%" y1="100%" x2="-28.848%" y2="50%" id="h"><stop stop-color="#FFF" stop-opacity=".5" offset="0%"/><stop stop-color="#7F7F7F" stop-opacity=".5" offset="100%"/></linearGradient><linearGradient x1="13.89%" y1="50%" x2="0%" y2="50%" id="i"><stop stop-color="#FFF" stop-opacity="0" offset="0%"/><stop stop-opacity=".095" offset="100%"/></linearGradient><linearGradient x1="79.322%" y1="36.496%" x2="98.552%" y2="10.727%" id="j"><stop stop-color="#FFF" stop-opacity="0" offset="0%"/><stop stop-color="#332906" stop-opacity=".35" offset="100%"/></linearGradient><path id="g" d="M618.365 15s195.378 5.25 270.928 7.875C909.676 23.585 947.12 29 947.12 29s3.32 24.297 3.32 38v148H618.366V15z"/></defs><g fill="none" fill-rule="evenodd"><path d="M10.78 26l315.257-1 307.926-10 314.035 10 2.443 180-316.477-11-306.704 20-317.7 1 1.22-189z" fill-opacity=".15" fill="#000" filter="url(#a)"/><use fill="#F3DE91" xlink:href="#b"/><use fill="url(#c)" xlink:href="#b"/><use fill="url(#d)" xlink:href="#b"/><g><use fill="#E6D28A" xlink:href="#e"/><use fill="url(#f)" xlink:href="#e"/></g><g><use fill="#EBD892" xlink:href="#g"/><use fill="url(#h)" xlink:href="#g"/><use fill="url(#i)" xlink:href="#g"/><use fill="url(#j)" xlink:href="#g"/></g></g></svg>