<svg width="799" height="213" viewBox="0 0 799 213" xmlns="http://www.w3.org/2000/svg" xmlns:xlink="http://www.w3.org/1999/xlink"><title>strip</title><defs><filter x="-50%" y="-50%" width="200%" height="200%" filterUnits="objectBoundingBox" id="a"><feGaussianBlur stdDeviation="4.853" in="SourceGraphic" result="blur"/></filter><linearGradient x1="100%" y1="5.505%" x2="0%" y2="100%" id="c"><stop stop-color="#FFF" stop-opacity=".503" offset="0%"/><stop stop-color="#7F7F7F" stop-opacity=".5" offset="100%"/></linearGradient><linearGradient x1="87.252%" y1="56.541%" x2="98.809%" y2="5.041%" id="d"><stop stop-color="#FFF" stop-opacity="0" offset="0%"/><stop stop-opacity=".252" offset="100%"/></linearGradient><path id="b" d="M4.957 127.978L90 133l21.49 9.825 63.484 10.48 23.55-8.733 62.46.873s32.767-17.467 45.054-17.467c12.287 0 23.55 20.088 35.838 20.088 12.287 0 24.574 1.746 28.67 1.746 4.095 0 32.766-5.24 32.766-5.24l72.7-5.24 35.837 8.734s45.052-1.747 49.148-1.747c4.095 0 58.364-8.735 58.364-8.735l19.455 3.494 56.316 25.326 41.98 3.494s3.073 1.746 12.29 6.113C758.616 180.38 775 183 775 183s0-116-10-160c-80-10-195.76-10-288.99-10H4.958v114.978z"/></defs><g fill="none" fill-rule="evenodd"><path d="M15.025 145s89.322-2 99.59 5c10.266 7 5.132 12 5.132 12l60.575 5 24.64-8 29.775 7 25.667-8 32.854-9s7.187-1 23.614 4 35.934 5 35.934 5l14.374 6s9.24-3 29.774-3 33.88-2 33.88-2l15.4-8s11.294-8 11.294 0 14.374 13 14.374 13l26.694-6 23.614 1s28.747 10 35.934 5c7.187-5 39.014-5 39.014-5s7.187-14 21.56-7c14.374 7 36.962 10 36.962 10l25.667 1 56.468 20s-3.08 5 11.293 12c14.374 7 30.892 0 30.892 0l4-180-769 8 .025 122z" fill-opacity=".203" fill="#000" filter="url(#a)"/><path d="M5.025 135s89.322-2 99.59 5c10.266 7 5.132 12 5.132 12l60.575 5 24.64-8 29.775 7 25.667-8 32.854-9s7.187-1 23.614 4 35.934 5 35.934 5l14.374 6s9.24-3 29.774-3 33.88-2 33.88-2l15.4-8s11.294-8 11.294 0 14.374 13 14.374 13l26.694-6 23.614 1s28.747 10 35.934 5c7.187-5 39.014-5 39.014-5s7.187-14 21.56-7c14.374 7 36.962 10 36.962 10l25.667 1 56.468 20s.81 1 15.185 8c14.374 7 29 4 29 4v-36L5 23l.025 112z" fill="#F7F7F7"/><use fill="#A68585" xlink:href="#b"/><use fill="url(#c)" xlink:href="#b"/><use fill="url(#d)" xlink:href="#b"/></g></svg>