<svg width="572" height="45" viewBox="0 0 572 45" xmlns="http://www.w3.org/2000/svg"><title>tear</title><defs><filter x="-50%" y="-50%" width="200%" height="200%" filterUnits="objectBoundingBox" id="a"><feOffset dy="3" in="SourceAlpha" result="shadowOffsetOuter1"/><feGaussianBlur stdDeviation="2.5" in="shadowOffsetOuter1" result="shadowBlurOuter1"/><feColorMatrix values="0 0 0 0 0 0 0 0 0 0 0 0 0 0 0 0 0 0 0.0707370924 0" in="shadowBlurOuter1" result="shadowMatrixOuter1"/><feMerge><feMergeNode in="shadowMatrixOuter1"/><feMergeNode in="SourceGraphic"/></feMerge></filter></defs><g fill="none" fill-rule="evenodd"><path fill="#E7E6E4" d="M0 0h572v45H0z"/><path d="M0 24l39 6 20-2 12-1 4 5 42-5 11 5 14-2 15 3 31 4 12-5 26 4 17-9 4 5 26 4 23-2 21-4 12-9 7 7 32 7 21-4 15-1 17 1 16-11 21-2 10 3h15l13 2 22 8 13-9 17 1 16-1 8 2V8L0 5v19z" fill="#F6F6F6" filter="url(#a)"/><path d="M0 17l40 12 21-8 38 6 86-4 8 3 91 6 14-7 18-4 5 8 19-3 54-5 21 3 27-1s7-2 11-2 30-12 30-12l10 10 34 5 22-7h23V-.028H0V17z" fill="#F2EBE3"/></g></svg>