<?xml version="1.0" encoding="UTF-8" standalone="no"?>
<svg width="550px" height="550px" viewBox="0 0 550 550" version="1.1" xmlns="http://www.w3.org/2000/svg" xmlns:xlink="http://www.w3.org/1999/xlink" xmlns:sketch="http://www.bohemiancoding.com/sketch/ns">
    <!-- Generator: Sketch 3.3.3 (12081) - http://www.bohemiancoding.com/sketch -->
    <title>logo</title>
    <desc>Created with Sketch.</desc>
    <defs>
        <filter x="-50%" y="-50%" width="200%" height="200%" filterUnits="objectBoundingBox" id="filter-1">
            <feGaussianBlur stdDeviation="5" in="SourceGraphic" result="blur"></feGaussianBlur>
        </filter>
        <linearGradient x1="0%" y1="50%" x2="100%" y2="100%" id="linearGradient-2">
            <stop stop-color="#FFFFFF" stop-opacity="0.501273777" offset="0%"></stop>
            <stop stop-color="#7F7F7F" stop-opacity="0.499150815" offset="100%"></stop>
        </linearGradient>
        <linearGradient x1="50%" y1="0%" x2="50%" y2="20.3328125%" id="linearGradient-3">
            <stop stop-color="#FFFFFF" stop-opacity="0.253198596" offset="0%"></stop>
            <stop stop-color="#FFFFFF" stop-opacity="0" offset="100%"></stop>
        </linearGradient>
        <path id="path-4" d="M250,250 L490,250 L500,500 L250,490 L250,250 Z"></path>
        <linearGradient x1="0%" y1="100%" x2="100%" y2="50%" id="linearGradient-5">
            <stop stop-color="#FFFFFF" stop-opacity="0.499688632" offset="0%"></stop>
            <stop stop-color="#7F7F7F" stop-opacity="0.499433877" offset="100%"></stop>
        </linearGradient>
        <linearGradient x1="50%" y1="0%" x2="50%" y2="15.8125%" id="linearGradient-6">
            <stop stop-color="#FFFFFF" stop-opacity="0.249688632" offset="0%"></stop>
            <stop stop-color="#FFFFFF" stop-opacity="0" offset="100%"></stop>
        </linearGradient>
        <path id="path-7" d="M10,250 L250,250 L250,490 L0,500 L10,250 Z"></path>
        <linearGradient x1="0%" y1="100%" x2="100%" y2="50%" id="linearGradient-8">
            <stop stop-color="#FFFFFF" stop-opacity="0.5" offset="0%"></stop>
            <stop stop-color="#808080" stop-opacity="0.5" offset="100%"></stop>
        </linearGradient>
        <linearGradient x1="50%" y1="83.571875%" x2="50%" y2="100%" id="linearGradient-9">
            <stop stop-color="#FFFFFF" stop-opacity="0" offset="0%"></stop>
            <stop stop-color="#000000" stop-opacity="0.1" offset="100%"></stop>
        </linearGradient>
        <path id="path-10" d="M250,10 L500,0 L490,250 L250,250 L250,10 Z"></path>
        <linearGradient x1="0%" y1="0%" x2="50%" y2="100%" id="linearGradient-11">
            <stop stop-color="#FFFFFF" stop-opacity="0.5" offset="0%"></stop>
            <stop stop-color="#808080" stop-opacity="0.5" offset="100%"></stop>
        </linearGradient>
        <linearGradient x1="50%" y1="84.178125%" x2="50%" y2="100%" id="linearGradient-12">
            <stop stop-color="#FFFFFF" stop-opacity="0" offset="0%"></stop>
            <stop stop-color="#000000" stop-opacity="0.1" offset="100%"></stop>
        </linearGradient>
        <path id="path-13" d="M0,0 L250,10 L250,250 L10,250 L0,0 Z"></path>
    </defs>
    <g id="Logo" stroke="none" stroke-width="1" fill="none" fill-rule="evenodd" sketch:type="MSPage">
        <path d="M35,275 L15,15 L275,35 L535,15 L515,275 L535,535 L275,515 L15,535 L35,275 Z" id="Shadow" fill-opacity="0.200000003" fill="#333333" filter="url(#filter-1)" sketch:type="MSShapeGroup"></path>
        <g id="Paper-1" sketch:type="MSLayerGroup" transform="translate(15.000000, 15.000000)">
            <g id="Rectangle-1-Copy-4">
                <use fill="#618F70" sketch:type="MSShapeGroup" xlink:href="#path-4"></use>
                <use fill="url(#linearGradient-2)" xlink:href="#path-4"></use>
                <use fill="url(#linearGradient-3)" xlink:href="#path-4"></use>
            </g>
            <g id="Rectangle-1-Copy-3">
                <use fill="#618F70" sketch:type="MSShapeGroup" xlink:href="#path-7"></use>
                <use fill="url(#linearGradient-5)" xlink:href="#path-7"></use>
                <use fill="url(#linearGradient-6)" xlink:href="#path-7"></use>
            </g>
            <g id="Rectangle-1-Copy">
                <use fill="#618F70" sketch:type="MSShapeGroup" xlink:href="#path-10"></use>
                <use fill="url(#linearGradient-8)" xlink:href="#path-10"></use>
                <use fill="url(#linearGradient-9)" xlink:href="#path-10"></use>
            </g>
            <g id="Rectangle-1-Copy-2">
                <use fill="#618F70" sketch:type="MSShapeGroup" xlink:href="#path-13"></use>
                <use fill="url(#linearGradient-11)" xlink:href="#path-13"></use>
                <use fill="url(#linearGradient-12)" xlink:href="#path-13"></use>
            </g>
        </g>
        <g id="Neontribe-Logo" sketch:type="MSLayerGroup" transform="translate(58.000000, 60.000000)" fill-opacity="0.748782835" fill="#000000">
            <path d="M234.060397,37.7827044 C235.986227,62.1669811 287.148198,50.8847296 290.272935,31.6323522 C292.767212,16.2530252 281.982219,10.1983145 263.923685,13.1795723 C250.95103,15.3241824 232.7745,21.4857358 234.060397,37.7827044 M266.559212,0 L275.341722,0 C294.048803,3.55683019 306.107635,13.7887484 302.567759,34.268956 C297.3346,64.5545723 232.032074,76.665717 223.520007,44.8136478 C215.625482,15.2604214 245.141672,4.1711761 266.559212,0" id="Fill-1" sketch:type="MSShapeGroup"></path>
            <path d="M134.438254,39.7875124 C133.960242,38.4192357 132.058528,37.1009338 131.802726,35.3931728 C130.630519,27.5117954 168.946445,8.051764 177.474014,3.76254387 C180.969103,2.00566966 185.245376,8.10518538 185.379737,9.03488978 C186.559695,17.167003 167.51413,23.1243489 161.666014,26.6079401 C151.800871,32.4860156 146.725327,38.8655627 134.438254,39.7875124" id="Fill-2" sketch:type="MSShapeGroup"></path>
            <path d="M145.597321,62.4056884 C145.018538,61.2252482 143.718,60.7685815 142.082422,60.6479526 C137.729495,50.544418 151.348112,45.950179 162.28383,39.5594306 C172.994753,33.3039589 178.925553,29.2284243 185.120766,26.3789966 C189.348807,24.4360092 194.660344,28.2091098 194.780923,31.6522042 C195.005718,38.0179652 177.042787,46.1750658 171.94571,49.2252545 C161.873859,55.2523928 155.310878,58.6963488 145.597321,62.4056884" id="Fill-3" sketch:type="MSShapeGroup"></path>
            <path d="M111.762782,27.7593024 C118.244803,44.2742646 121.217092,64.8983653 122.303171,84.8719313 C110.964372,86.5857238 101.727966,79.6486986 93.3192539,75.2052458 C84.6461276,70.6256546 76.7404051,65.1620256 67.8476514,61.1485288 C66.2379123,77.1103212 68.7201318,97.1683275 63.4568274,109.475063 L57.3081235,109.475063 C52.1860696,100.282277 54.9301193,83.6234219 55.5519661,69.9354848 C55.9998336,60.0525288 53.781167,48.4988621 60.823022,44.4526231 C78.3604796,51.2190445 92.6603719,61.2217678 109.129838,69.0557552 C106.311718,55.2601137 103.549581,45.0040697 102.97855,30.3959061 C104.859593,28.4667049 107.244488,27.04673 111.762782,27.7593024" id="Fill-4" sketch:type="MSShapeGroup"></path>
            <path d="M350.820638,34.5668052 C356.483578,51.1627612 361.013068,68.8891826 365.751851,86.4070883 C370.288232,83.136321 374.182957,76.5525662 379.805416,69.7137675 C385.178965,63.1756794 391.733333,50.6070065 400.884472,55.6544656 C402.602733,67.7397612 390.710128,76.0657423 384.197101,83.7704845 C377.72111,91.4330065 372.53446,104.664277 360.482518,105.737013 C352.260704,89.655453 349.355594,68.248126 342.916638,50.3829813 C336.739511,53.9165474 329.313524,60.0556983 320.080563,67.0771637 C312.21446,73.0577738 298.612207,88.5956417 291.975155,77.6201323 C295.463354,66.3413272 307.479983,62.0857109 315.689739,55.6544656 C324.343056,48.8733964 332.481325,41.7140694 341.161342,35.4448115 C341.377524,34.491843 342.907164,34.8502832 342.916638,33.6870757 C346.116306,33.4173838 348.632116,33.8266606 350.820638,34.5668052" id="Fill-5" sketch:type="MSShapeGroup"></path>
            <path d="M155.142251,85.7496226 C153.497199,83.5334968 151.242358,83.1629936 151.629936,78.7195408 C152.110532,73.215415 188.022615,54.5274087 195.545928,49.7237924 C199.606019,47.1302704 204.201828,53.6063207 204.327576,54.1172704 C206.324892,62.1718364 187.637621,69.407849 182.370872,72.5700502 C172.25165,78.6419936 166.481911,83.5248804 155.142251,85.7496226" id="Fill-6" sketch:type="MSShapeGroup"></path>
            <path d="M282.356912,75.1719502 C283.366337,77.6345037 283.366337,79.7403401 282.356912,82.202032 C263.244167,85.8122835 241.735331,80.2771389 222.633782,76.9314093 C220.725177,75.231403 220.071463,65.660359 227.025467,66.3849942 C239.337517,67.6740005 273.672589,70.4717301 282.356912,75.1719502" id="Fill-7" sketch:type="MSShapeGroup"></path>
            <path d="M288.448283,227.793935 C287.560299,221.084381 283.017028,210.25535 277.907032,206.702828 C255.09249,190.863388 238.316407,240.081715 275.273227,230.428815 C285.644805,246.216557 272.824598,266.321092 265.611347,277.879067 C277.796788,267.749683 291.39215,250.043941 288.448283,227.793935 M135.622113,196.161583 C121.780424,185.740105 103.998362,201.383092 112.787761,219.00784 C120.096614,219.101759 120.897608,213.39601 128.595761,215.489784 C148.224415,220.835369 124.188573,263.223513 118.056233,268.208073 C143.185045,266.123777 154.676291,210.512979 135.622113,196.161583 M279.664912,170.681306 C274.325815,175.443564 266.172904,180.728834 255.949467,180.343683 C240.802072,179.785344 233.65514,166.313677 223.451513,160.135752 C178.143687,132.70818 107.216979,141.215105 70.628788,173.315325 C56.4804816,185.73235 43.606875,203.399318 47.7918522,230.428815 C49.5678191,178.597149 119.095803,153.652809 152.311206,185.620337 C166.313094,199.091142 171.83909,221.872777 189.199985,228.669356 C218.33032,240.086023 226.48237,207.561016 242.774411,197.915872 C254.152829,191.189086 276.06733,188.537834 288.448283,195.281853 C293.021699,197.778872 295.779529,204.531507 302.498403,207.586866 C311.33948,211.597777 321.045285,209.447998 330.605533,206.702828 C321.944465,194.754532 301.109152,187.559878 300.743968,168.921847 C300.632863,163.241947 303.462179,160.732004 303.378635,153.982815 C289.113194,147.847972 287.073674,164.074287 279.664912,170.681306 M308.646246,160.135752 C304.698121,182.153979 327.479074,202.421362 348.170552,199.675331 C361.52131,197.907255 367.433161,186.126117 375.399173,176.833381 C367.54685,180.840847 360.451595,188.460287 349.929293,190.012954 C332.856068,192.527205 315.725136,181.93857 316.552829,164.52923 C316.986055,155.40796 324.499894,148.366677 329.727885,144.3213 C333.486527,141.412419 339.942709,139.589199 338.510395,137.293803 C325.183753,141.596809 311.022527,146.904482 308.646246,160.135752 M414.918312,197.044759 C416.792465,206.557211 415.851082,212.486123 413.357666,221.903796 C410.835827,231.411079 407.400167,240.759822 401.747562,248.880733 C334.558825,345.435576 81.9357197,347.171771 13.5386017,248.880733 C-0.254855849,229.055369 -4.05225543,203.5794 4.67082531,181.209627 C8.52248577,171.333564 14.3757694,162.349293 21.3831731,154.429142 C35.7674713,138.17784 54.6468087,126.267457 74.1411027,117.082425 C144.454577,83.9525511 245.438362,80.1398152 322.701533,109.175199 C327.845119,109.175199 335.939463,114.447545 340.616233,116.582677 C346.575455,119.304583 352.431322,122.260853 358.114072,125.525589 C368.953326,131.750903 379.222411,139.108406 388.060904,147.984972 C396.687521,156.652161 403.842204,166.742771 408.785972,177.944891 C411.375852,183.817796 413.453268,190.005199 414.763281,196.294274 C414.817542,196.543287 414.869219,196.796608 414.918312,197.044759" id="Fill-8" sketch:type="MSShapeGroup"></path>
            <path d="M332.980738,336.288761 C329.682022,328.733944 342.618502,320.411409 352.301914,312.567944 C362.990444,303.900755 366.488117,298.890346 375.136266,294.994032 C379.043048,293.235434 382.906767,299.378893 383.04285,300.262931 C384.066916,306.973346 363.990394,319.977145 360.205914,323.108327 C351.088365,330.656252 343.066369,340.892478 332.980738,336.288761" id="Fill-9" sketch:type="MSShapeGroup"></path>
            <path d="M102.975072,331.466164 C93.229648,333.361762 85.6856646,326.095592 77.5051925,323.558076 C68.709764,336.768667 58.3373251,351.373384 48.5212754,365.736844 C45.6954037,369.872693 43.4750145,378.127158 35.3462195,373.639762 C35.226501,372.01041 34.7700207,370.705032 33.5900621,370.12946 C41.8377143,350.84951 55.1212919,336.605818 65.2103685,319.16546 C58.835147,315.038227 38.0566791,311.447793 49.3997847,300.71268 C57.7137557,300.592913 65.6410104,305.904032 78.3845631,311.258233 C89.5864182,315.964485 109.946302,318.242649 102.975072,331.466164" id="Fill-10" sketch:type="MSShapeGroup"></path>
            <path d="M391.977077,320.652964 C398.802749,329.61914 378.446311,341.022882 370.895437,347.012109 C361.322269,354.619486 352.128066,366.186077 342.79089,359.317121 C344.061284,347.716065 356.986567,342.50231 364.749317,336.470864 C372.535321,330.421323 380.47205,319.224373 391.977077,320.652964" id="Fill-11" sketch:type="MSShapeGroup"></path>
            <path d="M151.312123,348.540063 C151.384471,342.082969 140.061175,339.453258 131.113299,338.877686 C128.218525,345.06078 125.713051,351.63678 123.206715,358.205887 C134.466276,357.408874 151.219966,356.983226 151.312123,348.540063 M153.947651,410.925899 L150.435336,410.925899 C138.125009,398.341717 130.829937,380.747987 118.815891,367.873434 C114.280372,373.595553 111.434691,401.722774 101.24915,400.384654 C92.1832785,399.186981 98.4275849,387.663472 100.372363,382.811604 C108.246218,363.148226 115.843601,338.817371 124.962873,325.698113 C145.106575,326.383975 165.610293,333.168491 163.609531,351.174082 C162.168604,364.157201 148.191693,366.092434 136.381771,370.506591 C139.704604,380.280119 166.53445,401.761547 153.947651,410.925899" id="Fill-12" sketch:type="MSShapeGroup"></path>
            <path d="M272.402484,341.654342 C275.806277,359.339405 278.844886,377.384631 282.065226,395.249776 C291.684903,392.307292 309.417872,391.443933 308.415337,380.315053 C307.461896,369.757436 287.867694,373.309097 283.821383,367.13548 C278.37807,358.829317 289.456762,357.859977 292.604754,355.710197 C297.228124,352.561782 301.419992,347.430744 297.87581,340.776336 C290.505805,337.235876 279.957665,340.170606 272.402484,341.654342 M304.899578,360.987713 C315.108373,366.204914 324.316356,375.179707 319.832513,388.222279 C314.628638,403.354317 288.562749,407.456562 273.282716,407.554788 C267.042716,387.415788 262.812091,358.495002 260.10766,335.503128 C268.376845,327.688958 290.158708,324.039071 301.388124,328.475631 C312.392745,332.821719 315.110957,354.440147 304.899578,360.987713" id="Fill-13" sketch:type="MSShapeGroup"></path>
            <path d="M237.579004,340.991978 C235.253538,346.907104 224.105944,345.998079 220.012263,345.385456 C214.17276,361.21628 210.94553,379.659582 205.959559,396.349456 C211.973041,398.794777 225.039575,397.97967 220.012263,408.644991 C208.434027,412.704154 192.762109,406.980311 180.489679,406.010972 C179.284743,402.325758 178.195219,399.6185 180.489679,396.349456 C184.111377,393.620657 187.27401,395.78767 192.785364,395.465418 C198.671377,380.852946 201.765107,363.446192 205.959559,347.138884 C201.970954,344.690116 192.150598,348.075481 189.273049,344.504865 C189.4143,343.483827 189.077538,342.943582 188.393679,342.745406 C186.794275,330.281852 205.667584,333.959311 220.012263,333.959311 C229.818838,333.959311 238.808917,333.72667 237.579004,340.991978" id="Fill-14" sketch:type="MSShapeGroup"></path>
            <path d="M398.811237,342.930818 C420.842011,346.174874 391.662582,365.394509 385.637042,370.174 C381.994673,373.057893 357.268081,396.739937 354.896967,382.471258 C353.848785,376.172704 370.226094,366.11656 375.095791,362.264189 C384.57594,354.767962 391.452429,348.727899 398.811237,342.930818" id="Fill-15" sketch:type="MSShapeGroup"></path>
        </g>
    </g>
</svg>