<?xml version="1.0" encoding="UTF-8" standalone="no"?>
<svg width="799px" height="213px" viewBox="0 0 799 213" version="1.1" xmlns="http://www.w3.org/2000/svg" xmlns:xlink="http://www.w3.org/1999/xlink" xmlns:sketch="http://www.bohemiancoding.com/sketch/ns">
    <!-- Generator: Sketch 3.3.3 (12081) - http://www.bohemiancoding.com/sketch -->
    <title>strip</title>
    <desc>Created with Sketch.</desc>
    <defs>
        <filter x="-50%" y="-50%" width="200%" height="200%" filterUnits="objectBoundingBox" id="filter-1">
            <feGaussianBlur stdDeviation="4.85294118" in="SourceGraphic" result="blur"></feGaussianBlur>
        </filter>
        <linearGradient x1="100%" y1="5.50458716%" x2="0%" y2="100%" id="linearGradient-2">
            <stop stop-color="#FFFFFF" stop-opacity="0.50317029" offset="0%"></stop>
            <stop stop-color="#7F7F7F" stop-opacity="0.5" offset="100%"></stop>
        </linearGradient>
        <linearGradient x1="87.2516177%" y1="56.5410156%" x2="98.8094205%" y2="5.04101563%" id="linearGradient-3">
            <stop stop-color="#FFFFFF" stop-opacity="0" offset="0%"></stop>
            <stop stop-color="#000000" stop-opacity="0.252406024" offset="100%"></stop>
        </linearGradient>
        <path id="path-4" d="M4.95744801,127.978165 L89.9999971,133 L111.490239,142.825328 L174.974198,153.305677 L198.524699,144.572052 L260.984722,145.445415 C260.984722,145.445415 293.750626,127.978166 306.037854,127.978166 C318.325083,127.978166 329.588355,148.065502 341.875573,148.065502 C354.162791,148.065503 366.450008,149.812227 370.545748,149.812227 C374.641487,149.812228 403.311662,144.572052 403.311662,144.572052 L476.011034,139.331878 C476.011034,139.331878 511.848752,148.065502 511.848752,148.065502 C511.848752,148.065503 556.901884,146.318777 560.997623,146.318777 C565.093363,146.318778 619.361908,137.585153 619.361908,137.585153 L638.816669,141.078603 L695.133084,166.406114 L737.114412,169.899563 C737.114412,169.899563 740.186216,171.646289 749.40163,176.0131 C758.617043,180.379912 775,183 775,183 C775,183 774.99999,67 764.99999,23 C684.99999,13 569.239614,13 476.011037,13 L4.95744801,13 L4.95744801,127.978165 Z"></path>
    </defs>
    <g id="Strip" stroke="none" stroke-width="1" fill="none" fill-rule="evenodd" sketch:type="MSPage">
        <path d="M15.0250111,145 C15.0250111,145 104.347046,143 114.613946,150 C124.880847,157 119.747397,162 119.747397,162 L180.32211,167 L204.962671,159 L234.736683,166 L260.403934,158 L293.258016,149 C293.258016,149 300.444846,148 316.871887,153 C333.298928,158 352.806039,158 352.806039,158 L367.1797,164 C367.1797,164 376.41991,160.999999 396.953711,161 C417.487512,161.000001 430.834483,159 430.834483,159 L446.234834,151 C446.234834,151 457.528425,143 457.528425,151 C457.528425,159 471.902085,164 471.902085,164 L498.596027,158 L522.209898,159 C522.209898,159 550.95722,169 558.14405,164 C565.33088,159 597.158272,159 597.158272,159 C597.158272,159 604.345102,145 618.718763,152 C633.092424,159 655.679605,162 655.679605,162 L681.346856,163 L737.814809,183 C737.814809,183 734.734739,188.000001 749.1084,195 C763.482061,201.999999 779.999998,195.000001 779.999998,195.000001 L783.999998,14.9999997 L14.9999976,23.0000007 L15.0250111,145 Z" id="Shadow" fill-opacity="0.203181612" fill="#000000" filter="url(#filter-1)" sketch:type="MSShapeGroup"></path>
        <path d="M5.02501107,135 C5.02501107,135 94.3470458,133 104.613946,140 C114.880847,147 109.747397,152 109.747397,152 L170.32211,157 L194.962671,149 L224.736683,156 L250.403934,148 L283.258016,139 C283.258016,139 290.444846,138 306.871887,143 C323.298928,148 342.806039,148 342.806039,148 L357.1797,154 C357.1797,154 366.41991,150.999999 386.953711,151 C407.487512,151.000001 420.834483,149 420.834483,149 L436.234834,141 C436.234834,141 447.528425,133 447.528425,141 C447.528425,149 461.902085,154 461.902085,154 L488.596027,148 L512.209898,149 C512.209898,149 540.95722,159 548.14405,154 C555.33088,149 587.158272,149 587.158272,149 C587.158272,149 594.345102,135 608.718763,142 C623.092424,149 645.679605,152 645.679605,152 L671.346856,153 L727.814809,173 C727.814809,173 728.626337,174.000002 742.999998,181.000001 C757.373658,187.999999 771.999998,185.000001 771.999998,185.000001 L771.999998,149.000001 L4.99999757,23.0000007 L5.02501107,135 Z" id="White" fill="#F7F7F7" sketch:type="MSShapeGroup"></path>
        <g id="Card">
            <use fill="#A68585" sketch:type="MSShapeGroup" xlink:href="#path-4"></use>
            <use fill="url(#linearGradient-2)" xlink:href="#path-4"></use>
            <use fill="url(#linearGradient-3)" xlink:href="#path-4"></use>
        </g>
    </g>
</svg>