<?xml version="1.0" encoding="UTF-8" standalone="no"?>
<svg width="572px" height="45px" viewBox="0 0 572 45" version="1.1" xmlns="http://www.w3.org/2000/svg" xmlns:xlink="http://www.w3.org/1999/xlink" xmlns:sketch="http://www.bohemiancoding.com/sketch/ns">
    <!-- Generator: Sketch 3.3.3 (12081) - http://www.bohemiancoding.com/sketch -->
    <title>tear</title>
    <desc>Created with Sketch.</desc>
    <defs>
        <filter x="-50%" y="-50%" width="200%" height="200%" filterUnits="objectBoundingBox" id="filter-1">
            <feOffset dx="0" dy="3" in="SourceAlpha" result="shadowOffsetOuter1"></feOffset>
            <feGaussianBlur stdDeviation="2.5" in="shadowOffsetOuter1" result="shadowBlurOuter1"></feGaussianBlur>
            <feColorMatrix values="0 0 0 0 0   0 0 0 0 0   0 0 0 0 0  0 0 0 0.0707370924 0" in="shadowBlurOuter1" type="matrix" result="shadowMatrixOuter1"></feColorMatrix>
            <feMerge>
                <feMergeNode in="shadowMatrixOuter1"></feMergeNode>
                <feMergeNode in="SourceGraphic"></feMergeNode>
            </feMerge>
        </filter>
    </defs>
    <g id="Page-1" stroke="none" stroke-width="1" fill="none" fill-rule="evenodd" sketch:type="MSPage">
        <rect id="Bottom-Card" fill="#E7E6E4" sketch:type="MSShapeGroup" x="0" y="0" width="572" height="45"></rect>
        <path d="M-2.84217094e-14,24 L39,30 L59,28 L71,27 L75,32 L117,27 L128,32 L142,30 L157,33 L188,37 L200,32 L226,36 L243,27 L247,32 L273,36 L296,34 L317,30 L329,21 L336,28 L368,35 L389,31 L404,30 L421,31 L437,20 L458,18 L468,21 L483,21 L496,23 L518,31 L531,22 L548,23 L564,22 L572,24 L572,8 L-2.84217094e-14,5 L-2.84217094e-14,24 Z" id="White" fill="#F6F6F6" filter="url(#filter-1)" sketch:type="MSShapeGroup"></path>
        <path d="M-1.03884702e-07,16.9999994 L40,29 L61,21 L99,27 L185,23 L193,26 L284,32 L298,25 L316,21 L321,29 L340,26 L394,21 L415,24 L442,23 C442,23 449,21 453,21 C457,21 483,9 483,9 L493,19 L527,24 L549,17 L572,16.9999994 L572,-0.0277563773 L-1.03884702e-07,-0.0277563773 L-1.03884702e-07,16.9999994 Z" id="Top-Card" fill="#F2EBE3" sketch:type="MSShapeGroup"></path>
    </g>
</svg>